# xmcd CD database file generated by OrangeCD 6.1
#
# Track frame offsets:
#	150
#	15930
#	30312
#	46094
#	61408
#	72327
#	86888
#	101820
#	121989
#	136329
#	148513
#	165483
#	181828
#
# Disc length: 2500 seconds
#
# Revision: 0
# Processed by: cddbd v1.5.2PL0 Copyright (c) Steve Scherf et al.
# Submitted via: OrangeCD 6.1
#
DISCID=a509c20d
DTITLE=Marc Lelangue - Secopnd Hand Roots
DYEAR=2005
DGENRE=Blues
TTITLE0=Wartime Blues
TTITLE1=tingy Mama
TTITLE2=Rowdy Blues
TTITLE3=Broke Down Engine
TTITLE4=Baby, Quit Your Low Down Ways
TTITLE5=Bad Luck Blues
TTITLE6=Blue River Risin'
TTITLE7=The Soul Of A Man
TTITLE8=One Dime Blues
TTITLE9=Milk Cow Blues
TTITLE10=I Should Have Loved Her More
TTITLE11=Baby Please Don't Go
TTITLE12=Mi Viaje a Tortoles
EXTD=
EXTT0=
EXTT1=
EXTT2=
EXTT3=
EXTT4=
EXTT5=
EXTT6=
EXTT7=
EXTT8=
EXTT9=
EXTT10=
EXTT11=
EXTT12=
PLAYORDER=
